<?xml version="1.0" encoding="utf-8"?>
<!-- Generator: Adobe Illustrator 26.0.1, SVG Export Plug-In . SVG Version: 6.00 Build 0)  -->
<svg version="1.1" id="Layer_1" xmlns:serif="http://www.serif.com/"
	 xmlns="http://www.w3.org/2000/svg" xmlns:xlink="http://www.w3.org/1999/xlink" x="0px" y="0px" viewBox="0 0 1395.5 283.5"
	 style="enable-background:new 0 0 1395.5 283.5;" xml:space="preserve">
<style type="text/css">
	.st0{fill:#111111;}
</style>
<g transform="matrix(1,0,0,1,-1451.77,-763.114)">
	<g transform="matrix(1,0,0,1,1527.56,920.567)">
		<path class="st0" d="M65.6,98.9L53.9,85L45,74.4C18.3,77.8-1.2,87.5-1.2,99c0,14.4,29.9,26,66.8,26s66.8-11.7,66.8-26
			c0-11.6-19.5-21.2-46.2-24.6L77.3,85L65.6,98.9z"/>
	</g>
	<g transform="matrix(1,0,0,1,1497.82,844.817)">
		<path class="st0" d="M46.6,17.1C26.3,24.5,3.9,14-3.4-6.2c-7.4-20.3,3.1-42.7,23.3-50c20.3-7.4,42.7,3.1,50,23.3
			C77.3-12.7,66.9,9.7,46.6,17.1 M178.6-77.9c-7-2.6-14.2-3.8-21.2-3.8c-21.2,0-41.3,11.1-52.7,29.5c0.9,1.9,1.9,3.7,2.6,5.7
			c2.1,5.9,3.3,11.9,4,17.9c7.2-14.7,27.6-30.9,46.1-30.2c4.6,0,9.1,0.8,13.4,2.4c20.3,7.4,30.8,30,23.4,50.3
			c-1.7,4.6-4.2,8.8-7.7,12.9L95.3,115.4V-18.2v0c0.2-7.5-1-15.1-3.7-22.6C87-53.4,78.8-63.7,68.5-70.7C60.8-76,51.9-79.5,42.7-81
			c-3.1-0.5-6.2-0.7-9.4-0.7c-7.1,0-14.2,1.2-21.2,3.8C-20.2-66.2-36.8-30.6-25.1,1.6c2.7,7.5,6.7,14.1,11.7,19.8L95.3,151
			L204.1,21.4c5-5.6,8.9-12.2,11.7-19.7C227.5-30.6,210.9-66.2,178.6-77.9"/>
	</g>
</g>
<g>
	<path d="M450.7,148.3l14-74.1c0.4-2.2,1.3-3.7,2.6-4.6c1.3-0.9,2.7-1.3,4.2-1.3h28.7c1.3,0,2.4,0.5,3.4,1.4c0.9,1,1.4,2.1,1.4,3.4
		c0,0.4-0.1,1-0.2,1.8l-28.3,138.5c-0.3,2-1.5,3.9-3.5,5.7c-2,1.8-4.5,2.6-7.5,2.6h-18.2c-2.9,0-5.3-0.9-7.1-2.6
		c-1.8-1.8-3.1-3.7-3.8-5.7L420,163.9l-16.4,49.5c-0.7,2-2,3.9-3.8,5.7c-1.8,1.8-4.2,2.6-7.1,2.6h-18.2c-2.9,0-5.4-0.9-7.5-2.6
		c-2-1.8-3.2-3.7-3.5-5.7L335.2,74.9c-0.1-0.7-0.2-1.3-0.2-1.8c0-1.3,0.5-2.4,1.4-3.4c0.9-0.9,2.1-1.4,3.4-1.4h28.7
		c1.5,0,2.9,0.4,4.2,1.3c1.3,0.9,2.2,2.4,2.6,4.6l14,74.1l12.9-39.7c0.3-1,0.9-2.3,2-3.9c1-1.6,2.9-2.4,5.5-2.4h20.6
		c2.6,0,4.5,0.8,5.5,2.4c1,1.6,1.7,2.9,2,3.9L450.7,148.3z"/>
	<path d="M562.3,89.8c0,1.6-0.6,3-1.8,4.2c-1.2,1.2-2.6,1.8-4.2,1.8h-27.6c-1.6,0-3-0.6-4.2-1.8c-1.2-1.2-1.8-2.6-1.8-4.2V67.6
		c0-1.6,0.6-3,1.8-4.2c1.2-1.2,2.6-1.8,4.2-1.8h27.6c1.6,0,3,0.6,4.2,1.8c1.2,1.2,1.8,2.6,1.8,4.2V89.8z M562.3,215.8
		c0,1.6-0.6,3-1.8,4.2c-1.2,1.2-2.6,1.8-4.2,1.8h-27.6c-1.6,0-3-0.6-4.2-1.8c-1.2-1.2-1.8-2.6-1.8-4.2V113.7c0-1.6,0.6-3,1.8-4.2
		c1.2-1.2,2.6-1.8,4.2-1.8h27.6c1.6,0,3,0.6,4.2,1.8c1.2,1.2,1.8,2.6,1.8,4.2V215.8z"/>
	<path d="M667.3,107.8c1.6,0,3,0.6,4.2,1.8c1.2,1.2,1.8,2.6,1.8,4.2v22.1c0,1.6-0.6,3-1.8,4.2c-1.2,1.2-2.6,1.8-4.2,1.8h-19.9
		c-13.4,0-20.2,6.7-20.2,20.2v53.9c0,1.6-0.6,3-1.8,4.2c-1.2,1.2-2.6,1.8-4.2,1.8h-27.6c-1.6,0-3-0.6-4.2-1.8
		c-1.2-1.2-1.8-2.6-1.8-4.2V113.7c0-1.6,0.6-3,1.8-4.2c1.2-1.2,2.6-1.8,4.2-1.8h25.4c1.6,0,3,0.6,4.2,1.8c1.2,1.2,1.8,2.6,1.8,4.2v5
		c3.4-3.2,7.4-5.8,12.2-7.9c4.7-2,10.4-3.1,17-3.1H667.3z"/>
	<path d="M814.8,68.3c1.6,0,3,0.6,4.2,1.8c1.2,1.2,1.8,2.6,1.8,4.2v141.6c0,1.6-0.6,3-1.8,4.2c-1.2,1.2-2.6,1.8-4.2,1.8h-28.7
		c-1.6,0-3-0.6-4.2-1.8c-1.2-1.2-1.8-2.6-1.8-4.2v-53.7h-48.7v53.7c0,1.6-0.6,3-1.8,4.2c-1.2,1.2-2.6,1.8-4.2,1.8h-28.7
		c-1.6,0-3-0.5-4.2-1.6c-1.2-1.1-1.8-2.5-1.8-4.3V74.2c0-1.6,0.6-3,1.8-4.2c1.2-1.2,2.6-1.8,4.2-1.8h28.7c1.6,0,3,0.6,4.2,1.8
		c1.2,1.2,1.8,2.6,1.8,4.2V127h48.7V74.2c0-1.6,0.6-3,1.8-4.2c1.2-1.2,2.6-1.8,4.2-1.8H814.8z"/>
	<path d="M881.9,177.2c0,3.4,0.6,6.1,1.9,8.3c1.2,2.2,2.8,3.9,4.7,5.3c1.9,1.3,4,2.2,6.4,2.7c2.3,0.5,4.6,0.8,6.8,0.8
		c4.4,0,7.9-0.4,10.4-1.3c2.6-0.9,4.7-2.1,6.5-3.7c1.6-1.3,2.8-2.2,3.5-2.5c0.7-0.4,2-0.5,3.7-0.5h28.5c3.2,0,4.8,1.6,4.8,4.8
		c0,1.8-1.1,4.4-3.3,8c-2.2,3.6-5.6,7.2-10.2,11c-4.6,3.7-10.6,7-17.9,9.8c-7.3,2.8-16,4.2-26.1,4.2c-9.5,0-17.9-1.4-25.3-4.1
		c-7.4-2.7-13.6-6.6-18.6-11.7c-5-5.1-8.8-11.3-11.4-18.6c-2.6-7.3-3.8-15.6-3.8-24.8c0-8.5,1.3-16.3,3.8-23.6
		c2.6-7.2,6.4-13.5,11.4-18.7s11.3-9.4,18.6-12.4c7.4-3,15.8-4.5,25.3-4.5c10.7,0,19.8,1.8,27.3,5.4c7.5,3.6,13.7,8.2,18.4,13.9
		c4.7,5.7,8.2,12.1,10.3,19.2c2.1,7.1,3.2,14.1,3.2,21.2v6.1c0,1.6-0.6,3-1.8,4.2c-1.2,1.2-2.6,1.8-4.2,1.8H881.9z M901.6,135.2
		c-6.1,0-10.8,1.8-14,5.5c-3.2,3.7-5.1,7.7-5.7,12.3h39.5c-0.6-4.5-2.5-8.6-5.7-12.3C912.4,137,907.8,135.2,901.6,135.2z"/>
	<path d="M1020.2,215.8c0,1.6-0.6,3-1.8,4.2c-1.2,1.2-2.6,1.8-4.2,1.8h-27.6c-1.6,0-3-0.6-4.2-1.8c-1.2-1.2-1.8-2.6-1.8-4.2V72
		c0-1.6,0.6-3,1.8-4.2c1.2-1.2,2.6-1.8,4.2-1.8h27.6c1.6,0,3,0.6,4.2,1.8c1.2,1.2,1.8,2.6,1.8,4.2V215.8z"/>
	<path d="M1098,107.8h27c1.6,0,3,0.6,4.2,1.8c1.2,1.2,1.8,2.6,1.8,4.2v22.1c0,1.6-0.6,3-1.8,4.2c-1.2,1.2-2.6,1.8-4.2,1.8h-27v74.1
		c0,1.6-0.6,3-1.8,4.2c-1.2,1.2-2.6,1.8-4.2,1.8h-27.6c-1.6,0-3-0.6-4.2-1.8c-1.2-1.2-1.8-2.6-1.8-4.2v-74.1h-15.1
		c-1.6,0-3-0.6-4.2-1.8c-1.2-1.2-1.8-2.6-1.8-4.2v-22.1c0-1.6,0.6-3,1.8-4.2c1.2-1.2,2.6-1.8,4.2-1.8h15.1v-5.9
		c0-6.7,1.2-12.7,3.6-18s5.7-9.7,10-13.3c4.2-3.6,9.3-6.3,15.1-8.2c5.8-1.9,12.2-2.8,19.1-2.8h20.8c1.6,0,3,0.6,4.2,1.8
		c1.2,1.2,1.8,2.6,1.8,4.2v22.1c0,1.6-0.6,3-1.8,4.2c-1.2,1.2-2.6,1.8-4.2,1.8h-19.7c-3.5,0-6,0.9-7.3,2.6c-1.4,1.8-2.1,4-2.1,6.8
		V107.8z"/>
	<path d="M1179.8,177.2c0,3.4,0.6,6.1,1.9,8.3c1.2,2.2,2.8,3.9,4.7,5.3c1.9,1.3,4,2.2,6.4,2.7c2.3,0.5,4.6,0.8,6.8,0.8
		c4.4,0,7.9-0.4,10.4-1.3c2.6-0.9,4.7-2.1,6.5-3.7c1.6-1.3,2.8-2.2,3.5-2.5c0.7-0.4,2-0.5,3.7-0.5h28.5c3.2,0,4.8,1.6,4.8,4.8
		c0,1.8-1.1,4.4-3.3,8c-2.2,3.6-5.6,7.2-10.2,11c-4.6,3.7-10.6,7-17.9,9.8c-7.3,2.8-16,4.2-26.1,4.2c-9.5,0-17.9-1.4-25.3-4.1
		c-7.4-2.7-13.6-6.6-18.6-11.7c-5-5.1-8.8-11.3-11.4-18.6c-2.6-7.3-3.8-15.6-3.8-24.8c0-8.5,1.3-16.3,3.8-23.6
		c2.6-7.2,6.4-13.5,11.4-18.7s11.3-9.4,18.6-12.4c7.4-3,15.8-4.5,25.3-4.5c10.7,0,19.8,1.8,27.3,5.4c7.5,3.6,13.7,8.2,18.4,13.9
		c4.7,5.7,8.2,12.1,10.3,19.2c2.1,7.1,3.2,14.1,3.2,21.2v6.1c0,1.6-0.6,3-1.8,4.2c-1.2,1.2-2.6,1.8-4.2,1.8H1179.8z M1199.5,135.2
		c-6.1,0-10.8,1.8-14,5.5c-3.2,3.7-5.1,7.7-5.7,12.3h39.5c-0.6-4.5-2.5-8.6-5.7-12.3C1210.3,137,1205.6,135.2,1199.5,135.2z"/>
	<path d="M1395.5,215.8c0,1.6-0.6,3-1.8,4.2c-1.2,1.2-2.6,1.8-4.2,1.8h-27.6c-1.6,0-3-0.6-4.2-1.8c-1.2-1.2-1.8-2.6-1.8-4.2v-55.5
		c0-6.3-1.5-11.3-4.6-15.1c-3.1-3.8-7.9-5.7-14.5-5.7c-6.6,0-11.4,1.9-14.4,5.7c-3,3.8-4.5,8.8-4.5,15.1v55.5c0,1.6-0.6,3-1.8,4.2
		c-1.2,1.2-2.6,1.8-4.2,1.8h-27.6c-1.6,0-3-0.6-4.2-1.8c-1.2-1.2-1.8-2.6-1.8-4.2V113.7c0-1.6,0.6-3,1.8-4.2
		c1.2-1.2,2.6-1.8,4.2-1.8h26.5c1.6,0,3,0.6,4.2,1.8c1.2,1.2,1.8,2.6,1.8,4.2v5c1.2-1.5,2.6-3,4.4-4.6c1.8-1.6,3.9-3,6.4-4.3
		c2.5-1.2,5.4-2.3,8.7-3.1c3.3-0.8,7.1-1.2,11.5-1.2c7,0,13.4,1,19.3,3c5.8,2,10.9,5,15,9.1c4.2,4.1,7.4,9.3,9.8,15.6
		c2.3,6.3,3.5,13.7,3.5,22.4V215.8z"/>
</g>
</svg>
